# xmcd
#
# Track frame offsets: 
#        150
#        16855
#        33998
#        68357
#        93883
#        112871
#        126676
#        147866
#        167484
#        179337
#        208944
#        223065
#        249320
#        269608
#        300808
#        324895
#        336797
#
# Disc length: 4782 seconds
#
# Revision: 0
# Processed by: cddbd v1.5.2PL0 Copyright (c) Steve Scherf et al.
# Submitted via: ExactAudioCopy v1.3
#
DISCID=e512ac11
DTITLE=Various Artist - Akella Presents - vol.119 - Blues-Rock Instru
DTITLE=mental  CD1
DYEAR=2017
DGENRE=Blues
TTITLE0=Gary Hoey - Soul Surfer
TTITLE1=The Blind Mechanics of Disaster - It'll Come To Ya
TTITLE2=Kees Dusink - Forever Blue
TTITLE3=The Bluescasters - Wildman Blues
TTITLE4=Rocky Athas - Another Day, Another Time
TTITLE5=Tim Turner - Hot Damn
TTITLE6=Robben Ford and The Blue Line - The Brother
TTITLE7=The Force - Voodoo Cook's Revenge
TTITLE8=Steve Hunter - Blue Sun
TTITLE9=Larry McCray - Buck Naked
TTITLE10=Datura4 - If Seven Was Eleven
TTITLE11=David Grissom - Belly of the Beast
TTITLE12=Magic Red - Pitch
TTITLE13=Bruno Marini - Hoogie Boogie
TTITLE14=Peder Af Ugglas - Wino's Dance
TTITLE15=Rob Tognoni - Guitar Boogie ReFried
TTITLE16=Scott Romig - Chevrolet
EXTD=
EXTT0=
EXTT1=
EXTT2=
EXTT3=
EXTT4=
EXTT5=
EXTT6=
EXTT7=
EXTT8=
EXTT9=
EXTT10=
EXTT11=
EXTT12=
EXTT13=
EXTT14=
EXTT15=
EXTT16=
PLAYORDER=
